<?xml version="1.0" encoding="utf-8"?>

<!DOCTYPE svg PUBLIC "-//W3C//DTD SVG 1.1//EN" "http://www.w3.org/Graphics/SVG/1.1/DTD/svg11.dtd">
<svg version="1.1" id="Layer_1" xmlns="http://www.w3.org/2000/svg" xmlns:xlink="http://www.w3.org/1999/xlink" x="0px" y="0px"
	 viewBox="0 0 2145.406 1716.052" style="enable-background:new 0 0 2145.406 1716.052;" xml:space="preserve">
<path d="M950.835,58.664c1.213-0.9,2.9-0.78,4.187-0.06c0.207-0.127,0.627-0.387,0.833-0.513c1.467,0.027,2.98-0.053,4.434,0.313
	c3.014,0.753,6.141,0.12,9.208,0.44c2.088,1.272,36.368,3.352,43.08,3.214c1.974-0.247,3.961-0.76,5.961-0.267
	c9.534-0.43,31.554-7.701,53.762,2.194c0.32,0.047,0.967,0.133,1.287,0.18c1.66,0.84,3.167,1.94,4.774,2.88
	c1.494,0.507,3.147,0.32,4.661,0.86c0.127-0.12,0.393-0.36,0.52-0.48c0.9,0.433,1.827,0.847,2.747,1.28
	c0.86,0.027,1.74,0.053,2.64,0.093c4.041,2.61,15.177,2.217,20.03,5.207c0.327,0.04,0.973,0.12,1.293,0.16
	c1.067,0.627,2.174,1.194,3.294,1.754c13.855,6.667,10.48,8.038,14.309,10.582c-0.373,0.12-1.114,0.353-1.487,0.467
	c3.107,2.334,4.407,6.321,7.588,8.548c-0.213,0.253-0.634,0.773-0.847,1.027c2.674,1.013,3.954,3.687,5.661,5.788
	c2.994,0.133,3.027,3.807,5.581,4.741c0.104,0.14,6.758,10.316,6.828,10.475l-0.633,1.474l1.2-0.967
	c0.907,0.98,1.747,2.02,2.474,3.16c-0.487-0.087-1.447-0.247-1.927-0.327c0.553,0.687,1.313,1.147,2.094,1.574
	c0.367,0.907,0.72,1.82,1.06,2.747c5.286,3.021,3.254,3.244,5.741,6.608c-0.453,2.454,1.274,4.274,2.32,6.281
	c-0.547-0.013-1.627-0.047-2.167-0.06c0.433,0.973,0.9,1.934,1.427,2.88c0.227-0.147,0.68-0.453,0.907-0.6
	c5.821,4.122,6.9,3.938,7.848,6.301c2.22,0.413,4.034,2.14,6.361,2.107c7.09-0.024,8.607,3.154,13.162,4.867
	c0.907,0.847,1.774,1.734,2.614,2.667c0.1,1.174,0.22,2.354,0.347,3.534c0.4,0.66,0.814,1.32,1.254,1.98
	c-0.228,3.126,1.534,11.478,1.9,12.075c0.053,0.627,0.12,1.26,0.207,1.9c1.053,2.32,2.427,4.807,1.66,7.441
	c0.14,1.607,0.807,3.094,1.214,4.641c0.08,1.474-0.46,2.907-0.633,4.361c-0.147-0.313-0.44-0.947-0.58-1.26
	c-0.247,0.313-0.74,0.947-0.987,1.26c0.007,1.614-0.02,3.234,0.187,4.841c-1.794,5.334-1.694,11.095-3.561,16.396
	c-0.12,1.287-0.187,2.62,0.153,3.894c0.933,0.58,1.954,1,2.927,1.554c0.854-0.327,1.594-0.86,2.294-1.467
	c0.647,0.56,1.307,1.12,1.994,1.687c-1.594,0.787,0.227,2.127,0.847,2.934c1.4,1.074,2.094-0.847,2.834-1.734
	c0.793,0.42,1.587,0.833,2.42,1.24c-0.78,0.467-1.56,0.953-2.294,1.447c-0.073,1.354,0.193,2.64,1.44,3.401
	c0.28-0.76,0.573-1.52,0.867-2.28c0.533,0.8,1.1,1.594,1.707,2.374c0.053,1.68,0.253,3.354,0.74,4.974
	c-0.307,1.187-0.56,2.394-0.707,3.614c0.753,0.74,1.56,1.514,1.56,2.68c0.447-0.127,1.34-0.387,1.787-0.513l-1.24,0.467
	c0.1,0.373,0.3,1.12,0.4,1.494c-0.407-0.533-0.8-1.053-1.194-1.574c-0.167,4.307,1.047,8.481,0.9,12.795
	c1.312,3.095,1.196,5.721,1.287,6.634c2.194,4.878-2.851,9.586,6.448,17.189c-0.3,0.26-0.907,0.767-1.207,1.02
	c1.687,1.587,4.027,2.227,5.588,3.987c2.774,0.765,5.193,4.632,10.368,12.535c0.02,0.333,0.073,1.007,0.093,1.34
	c1.16,1.627,1.6,3.607,2.5,5.374c0.277,1.658,1.479,4.296,1.954,5.321c0.006,0.042,3.125,10.923,3.594,13.329
	c0.367,0.667,0.753,1.327,1.174,1.987c0.027,0.64,0.08,1.28,0.16,1.934c0.973,1.454,0.1,3.374,1.153,4.807
	c0.263,3.152-0.714,0.938,1.6,9.882c0.94,2.56,0.067,5.474,1.34,8.008c1.227,2.1-0.26,4.454,0.187,6.688
	c0.46,2.854,0.18,5.741,0.353,8.615c0.718,1.07,4.638,45.801,1.394,64.997c0.533,0.76,1.487,0.893,2.34,1.16
	c-0.2,0.193-0.6,0.587-0.8,0.78c-0.073,0.74-0.127,1.494-0.173,2.254c-2.654,2.687-0.96,6.808-1.587,10.155
	c-0.967,1.3-0.533,2.96-0.507,4.447c0.307,3.807,0.013,7.641-0.553,11.408c0.08,0.313,0.227,0.947,0.3,1.26
	c-0.207,1.414,0.313,2.734,0.82,4.027c-1.053-0.293-1.627-1.247-2.027-2.154c-1.76,2.92-1.814,6.441-1.174,9.702
	c0.587,0.893,1.174,1.914,0.833,3.04c-6.921,31.717-3.678,8.39-4.647,37.472c0.18,0.1,0.533,0.307,0.714,0.407
	c-0.213,2.8,0.22,5.588,0.927,8.295c1.374,7.041,1.807,14.236,1.92,21.403c0.913,2.127,0.5,4.461,0.333,6.694
	c-0.533-0.053-1.6-0.167-2.134-0.227c1.404,6.746-0.773,4.056-0.82,9.115c0.307-0.08,0.92-0.247,1.227-0.327
	c-1.814,1.44-0.533,4.121-1.887,5.868c-0.427,1.86-0.78,3.747-0.693,5.674c-1.154,2.107-2.534,4.201-2.667,6.674
	c-0.86,1.107-1.48,2.38-1.427,3.821c0.427-0.187,1.287-0.567,1.714-0.753c-1.866,3.55-3.073,9.977-2.854,12.602
	c0.307-0.14,0.92-0.413,1.227-0.553c0.84,1.754,2.614,2.707,3.734,4.261c0.707,0.48,1.393,0.994,2.087,1.554
	c0.353,0.013,1.053,0.04,1.407,0.053c2.027,2.907,5.174,4.807,7.975,6.914c0,0,14.894,14.092,22.43,30.818
	c0.827,1.454,1.587,2.98,1.967,4.641c0.353,0.66,0.734,1.314,1.154,1.967c0.02,0.333,0.06,1,0.08,1.333
	c0.407,0.66,0.82,1.32,1.254,1.994c0.033,0.327,0.1,0.98,0.14,1.3c0.713,1.414,1.895,4.947,3.834,8.055
	c0.033,0.327,0.107,0.973,0.14,1.3c1.017,1.523,21.951,44.049,22.517,44.734c0.04,0.327,0.12,0.967,0.16,1.287
	c11.667,20.763,7.749,30.689,17.876,44.687c0.027,0.333,0.073,0.993,0.1,1.327c0.393,0.647,0.787,1.307,1.18,1.987
	c2.267,16.703,10.077,12.353,7.341,26.664c-1.534,2.734-2.307,5.988-4.708,8.161c-8.956,8.485-13.369,26.917-27.198,32.392
	c0.201,13.126,1.493,35.059,0.02,42.44c0.007,4.107-0.173,8.235,0.107,12.342l0.827,0.627c0.16-0.527,0.473-1.587,0.633-2.114
	c-0.34,2.5,1.42,4.841,0.707,7.295c-0.247-1.347,0.447-3.714-1.7-3.754c0.513,1.207,0.707,2.594,0.92,3.914
	c0.62,1.307,0.273,2.88,1.08,4.141c-0.536,7.011,3.173,24.749,3.987,26.671c0.027,0.873,0.06,1.767,0.107,2.674
	c0.3,0.273,0.894,0.82,1.193,1.094c3.027,8.952,1.83,3.652,2.087,11.488c-2.037,3.056-0.98,2.966-2.56,5.368
	c-0.073,0.633-0.12,1.28-0.147,1.94c-1.3,1.84-1.167,4.274-2.547,6.061c-0.067,1.54-0.067,3.087-0.04,4.647
	c6.611,3.422,30.543,31.672,31.005,32.672c0.293,0.153,0.88,0.453,1.174,0.607c17.958,25.292,40.682,47.508,60.782,71.357
	c141.385,167.747,172.777,251.89,322.231,348.842c97.759,63.417,87.113,33.048,142.763,69.196
	c60.516,39.308,50.771,25.69,78.957,37.891c12.726,5.509,23.592,14.36,35.931,20.588c9.745,4.918,22.977,5.188,31.035,12.037
	c35.568,30.232,70.833,13.78,60.107,40.329c-1.916,4.744-8.175,7.324-11.686,10.616c-4.503,4.222-7.573,11.779-29.187,2.975
	c-4.521-1.842-9.399-2.871-13.794-4.801c-3.402-1.494-8.299-3.374-12.1-3.273c1.769,6.107,10.314,9.92,16.246,10.086
	c7.145,0.2,38.394,9.764,37.955,16.519c-0.396,6.103-4.261,11.374-6.137,17.071c-2.903,8.818-11.686-4.496-17.083,0.388
	c-3.712,3.36,4.99,12.398-1.335,13.767c-2.349,0.509-24.302-2.816-35.823-11.159c-11.517-8.341-5.615,2.34-12.541,15.23
	c-1.057,1.967-2.515,5.358-4.722,6.185c-3.332,0.262-10.575-2.133-14.069-3.514c-5.338-3.041-8.542-1.31-6.664,1.344
	c0.707,1,1.997,1.363,0.782,3.857c-2.943,6.041-0.332,7.714-7.72,8.087c-1.002-0.034-68.664-0.582-90.306,1.175
	c-50.163,4.074-40.639-10.502-100.577,2.852c-24.116,2.112-55.229-2.28-120.384-0.18c-13.739,0.443-71.219,4.188-86.655-19.956
	c-12.709-40.364-8.586-63.26-24.907-109.999c-1.876-5.373-2.294-10.897-5.42-15.694c-20.173-30.962-141.963-81.601-149.541-85.946
	c-0.32-0.04-0.974-0.12-1.3-0.16c-54.191-31.631-231.887-80.213-296.153-263.003c-2.854-8.118-4.012-16.518-6.401-24.671
	c-9.312,4.766-113.042,169.389-113.423,170.389c-0.213,0.007-0.647,0.02-0.86,0.027c-1.694,3.247-3.974,6.154-5.854,9.288
	c-0.207,0.013-0.633,0.04-0.84,0.053c-1.171,3.109-27.909,38.946-28.504,39.946c-0.193,0.02-0.573,0.06-0.767,0.08
	c-17.067,28.79-150.462,143.035-179.051,193.2c-9.292,16.305-20.221,48.966-58.936,67.318c-11.99,5.684-26.316,27.496-133.148,30.13
	c-65.941,1.626-17.49-3.844-100.168-1.674c-50.944,1.337-104.555,7.86-153.807-9.204c-8.243-2.856-16.928-3.553-24.864-7.481
	c-14.306-7.247-2.706,3.68-48.271-25.991c-4.036-2.628-42.785-38.466-56.518-102.702c-12.532-57.107,0.463-1.183-18.84-95.066
	c-4.657-22.648-21.594-58.95-21.753-81.355c-0.177-1.008-5.293-53.951-4.754-57.096c-0.1-0.4-0.3-1.193-0.407-1.594
	c-24.239,7.217-55.27-16.474-46.207-42.973c9.641-25.494,32.021-28.434,44.229-60.831c2.235-5.933,7.11-9.846,6.603-16.606
	c-0.278-3.706-1.464-7.3-1.733-11.007c-0.4-5.504,1.232-10.932,1.804-16.422c1.411-13.549-5.966-14.506-6.049-22.828
	c-3.146-15.317-0.599-27.257-0.193-28.271c0.671-1.582,3.523-15.894,4.081-17.103c6.802-46.205-15.766-89.501,38.344-325.429
	c33.862-147.643,97.809-209.39,181.182-304.167c30.607-34.794,40.66-31.754,56.921-50.262c8.552-9.733,15.751-22.015,29.487-24.97
	c1.554-0.973,3.227-1.727,4.774-2.714c1.247-1.007,2.314-2.38,4.014-2.614c0.247-0.24,0.74-0.713,0.993-0.953
	c0.913-0.213,1.674-0.747,2.267-1.467c0.38-0.033,1.14-0.093,1.52-0.127c0.18-1.394,1.487-1.273,2.567-1.36
	c0.287-0.313,0.86-0.94,1.147-1.254c0.747,0.007,1.494,0.027,2.247,0.047c1.134-1.187,1.66-2.707,1.64-4.334
	c0.86-0.98,0.74-2.254,0.667-3.454c-4.824,1.423-6.533,0.046-9.748-0.373c-0.927-0.9-2.087-0.467-3,0.133
	c-0.207-0.347-0.613-1.04-0.82-1.387c-0.553,0.047-1.667,0.147-2.227,0.193c3.514-3.834-0.501-4.761,8.715-7.221
	c0.113-0.353,0.34-1.053,0.453-1.407c0.447,0.173,0.88,0.38,1.314,0.627c0.14-0.547,0.427-1.64,0.567-2.194
	c-0.753-0.08-1.494-0.153-2.234-0.213c0.967-0.4,1.814-1.027,2.527-1.807c-1.44,0.453-3.127,1.254-4.507,0.193
	c-1.227-0.573-0.02-1.834,0.327-2.607c-0.887-0.073-1.767-0.147-2.64-0.22c-0.267-0.293-0.793-0.873-1.06-1.167
	c-0.7-0.247-1.387-0.493-2.074-0.733c0.7-0.887,0.94-1.92,0.767-3.027c0.693,0.5,1.22,1.133,1.574,1.92
	c1.84-0.433,3.747-0.74,5.414-1.707c-1.627-0.313-3.247-0.613-4.867-0.92c0.427-0.067,1.28-0.207,1.707-0.273
	c-0.92-0.98-2.16-1.487-3.354-2c-0.88-0.053-1.76-0.093-2.627-0.133c-0.433-0.207-1.294-0.627-1.727-0.833
	c0.013-0.753,0.033-1.507,0.06-2.247c-3.932-2.223-2.728-1.525-2.034-3.567c1.707,0.073,3.574,0.347,4.994-0.86
	c-2.229-1.703-1.529-0.602-4.461-2.9c0.387-0.06,1.154-0.18,1.54-0.24c-0.653-0.787-1.22-1.634-1.634-2.567
	c0.627-0.027,1.88-0.087,2.507-0.113c-1.394-3-4.581-4.527-6.474-7.161c1.22-0.107,2.454-0.267,3.574-0.813
	c0.007-0.913,0.027-1.827,0.047-2.734c1.94,0.62,4.574,1.227,6.208-0.34c-0.087-0.5-0.26-1.487-0.347-1.987
	c-1.794-2.154-4.641-3.634-5.481-6.421c1.387,0.627,2.727,1.367,3.967,2.274c1.6-0.393,3.141-1.234,3.887-2.774
	c0.353,0.007,1.053,0.02,1.4,0.033c1.497,2.387,6.425,4.712,9.315,5.488c0-0.447,0.007-1.34,0.007-1.787
	c0.693-0.693,1.24-1.494,1.34-2.494c0.227,0.74,0.473,1.474,0.733,2.207c-0.207,0.22-0.627,0.653-0.833,0.873
	c1.42,0.813,2.387,2.154,3.561,3.267c2.134,0.453,4.261,1.047,6.454,1.16c-0.727-2.5-3.614-2.347-5.701-2.467
	c0.767-1.347,2.347-0.287,3.434-0.06c0-0.493,0-1.48,0-1.974c-0.98-0.887-2.187-1.607-2.874-2.754
	c-0.32-1.254-0.187-2.927-1.827-3.2c1.687,0.567,2.687-1.4,4.407-1.034c1.013,1.194,2.107,2.32,3.227,3.434
	c0.493-0.013,1.487-0.047,1.98-0.06c-0.653-1.354-1.627-2.5-2.547-3.674c-1.194-0.587-2.367-1.234-3.26-2.227
	c0.473-0.013,1.42-0.033,1.887-0.047c1.687,2.487,4.981,2.027,7.314,3.547c1.227,0.96,2.74,1.287,4.287,1.207
	c-2.074-1.774-4.521-3.04-6.928-4.307c-1.067-1.414-2.114-2.834-3.201-4.227c-1.94-2.407-4.754-4.134-6.034-7.034
	c3.214,1.8,5.394,4.921,8.541,6.801c0.453-0.007,1.36-0.027,1.814-0.033c-0.433-1.174-0.893-2.34-1.354-3.494
	c0.287-0.147,0.853-0.44,1.14-0.593c-0.433-0.747-0.853-1.5-1.267-2.247c0.28,0.12,0.847,0.347,1.127,0.467
	c1.927,3.847,4.907,7.108,8.295,9.735c2.885,0.577,4.578,1.809,5.508,3.187c1.5-0.607,3.067-0.26,4.481,0.433
	c-0.067-0.42-0.2-1.26-0.267-1.68c0.8,0.5,1.627,1,2.48,1.434c2.314-0.027,4.241,1.574,6.561,1.62
	c-0.467-0.853-0.953-1.687-1.48-2.487c-0.02-1.087-0.02-2.18,0.007-3.261c1.66,0.773,2.934,2.147,4.541,3.034
	c3.094-1.92,6.354,1.32,9.682,0.66c-0.527-1.874-2.214-2.974-3.454-4.341c-0.08-0.773-0.347-1.46-0.807-2.06
	c0.247-0.293,0.74-0.887,0.987-1.187c0.347,0.447,0.707,0.9,1.073,1.36c0.44-0.007,1.32-0.013,1.76-0.013
	c0.253,0.34,0.76,1.013,1.013,1.354c1.554-0.133,3.114-0.06,4.667,0.093c-0.36-1.14-0.88-2.2-1.58-3.154
	c1.02,0.033,2.047,0.027,3.08-0.013c-1.22-0.887-2.774-1.073-4.014-1.914c-1.3-0.367-2.487-1.007-3.354-2.054
	c-2.665-0.68-1.901-0.965-6.248-1.8c-0.427,0.187-1.287,0.567-1.72,0.76c2.987-2.28,6.694,0.247,9.988,0.207
	c0.36-0.827,0.747-1.64,1.14-2.454c-1.407-0.707-2.674-1.634-3.727-2.794c-0.32-0.06-0.953-0.18-1.274-0.24
	c-1.06-1.754-3.027-2.507-4.574-3.727c-1.534-1.14-2.62-2.9-4.521-3.487c-1.6-0.693-4.101-1.854-3.354-4.027
	c1.427,0.087,2.527,1.12,3.627,1.92c1.48,0.4,2.934,0.913,4.341,1.54c0.113-0.287,0.347-0.86,0.46-1.147
	c-2.78-3.487-3.421-8.401-7.068-11.208c-0.027-0.333-0.08-1-0.107-1.334c-1.64-1.974-1.847-4.621-2.5-7.001
	c0.313,0.347,0.934,1.04,1.24,1.387c1.134-2.2-0.78-4.674-0.953-6.974c0.32,0.1,0.96,0.293,1.28,0.393
	c1.387,1.814,3.187,3.414,3.867,5.661c3.234,2.16,6.554,4.214,9.221,7.088c0.067-2.04-1.047-3.901-0.833-5.941
	c2.66,2.18,3.574,6.134,6.854,7.601c0.627-1.04-0.64-2.507,0.453-3.314c2.24-1.7,3.914,1.694,5.881,2.367
	c2.2,0.58,4.167,1.7,6.261,2.554c-0.18-1.207-0.287-2.447,0.073-3.627c0.713,1.167,1.154,2.494,1.36,3.847
	c0.693,0.727,1.407,1.447,2.134,2.16c1.74-0.347,3,0.76,4.041,2.014c1.107,0.1,2.22,0.193,3.354,0.267
	c-0.867-1.147-1.94-2.134-2.594-3.421c0.914,0.28,1.807,0.66,2.654,1.14c0.353,0.027,1.054,0.08,1.407,0.107
	c0.26,0.22,0.787,0.66,1.047,0.88c-2.12,1.2,0.393,2.494,1.487,3.04c3.801-0.127,7.414,1.2,10.922,2.507
	c0.033-0.847,0.053-1.694,0.06-2.534c-1.007-1.327-3.401-1.414-3.501-3.381c1.334,0.26,2.654,0.607,3.994,0.9
	c0.287,0.313,0.86,0.94,1.147,1.254c0.667-0.04,1.347-0.08,2.034-0.127c2.454-1.707,5.001,0.267,7.388,0.987
	c0.307-0.367,0.913-1.093,1.213-1.46c0.947-0.127,1.827,0.54,2.727,0.807c1.887,0.74,3.967,0.42,5.954,0.353
	c1.574-1.227,3.634-0.347,5.414-0.947c1.994-0.327,4.401-1,6.134,0.413c0.793-0.047,1.333-0.573,1.794-1.187
	c0.893-0.493,1.807-0.953,2.74-1.4c2.458-0.38,6.093-1.809,10.862-1.487c0.367-1.227,1.207-2.16,2.447-2.54
	c2.08-0.213,3.607-1.694,5.334-2.707c0.9-0.113,1.887,0.053,2.727-0.4c2.507-5.233,4.59-1.701,10.175-7.194
	c1.42-1.474,3.427-2.074,5.161-3.08c0.627-0.047,1.267-0.087,1.914-0.12c2.265-1.217,1.7-0.935,3.4-1.88
	c0.327-0.033,0.987-0.093,1.314-0.127c1.107-0.64,2.234-1.234,3.354-1.86c0.32-0.04,0.96-0.12,1.28-0.16
	c0.82-0.572,14.27-7.991,15.429-8.028c0.9-0.76,1.76-1.58,2.574-2.447c0.947-0.113,1.954-0.14,2.794-0.713
	c0.16,0.107,0.48,0.32,0.64,0.42c0.894-1.127,1.88-2.287,3.347-2.667c1.907-1.854,4.321-3.107,6.794-4.034
	c-0.12-1.594,1.147-2.48,2.447-3.04c2.641,0.493,4.227-2.02,6.708-2.214c4.514-3.154,8.508-7.334,14.035-8.715
	c1.534-1.249,8.506-5.759,10.635-6.021c3.417-1.696,4.311-4.737,8.661-5.181c1.148-0.919,5.362-4.563,15.976-10.488
	c2.587-0.06,4.627-2.38,5.208-4.781c0.7-0.02,1.414-0.04,2.134-0.06c1.096-0.691,3.789-2.13,6.054-3.027
	c3.122-1.785,0.999-3.435,7.374-5.721c-1.227-1.687,0.667-2.594,1.947-3.307c0.267,0.24,0.793,0.72,1.053,0.96
	c-0.147-0.38-0.44-1.14-0.587-1.52c0.627-0.033,1.887-0.113,2.514-0.153c-0.207-0.233-0.62-0.7-0.827-0.933
	c10.935-7.431,3.481-4.505,11.162-8.721c2.134-1.013,3.12-3.474,5.348-4.394c0.973-0.44,1.86-1.04,2.667-1.76
	c0.327-0.02,0.98-0.067,1.314-0.093c1.565-1.244,7.217-4.701,10.088-5.434c1.621-3.493,9.065-7.631,11.282-8.028
	c0.927-1.967,2.9-2.994,4.561-4.247c1.247-1.013,2.914-0.887,4.427-0.993c0.247,0.207,0.747,0.613,1,0.813
	c2.603-4.19,22.741-13.149,27.324-16.009c0.333-0.027,1-0.073,1.334-0.1c1.307-0.88,2.627-1.747,3.981-2.587
	c0.333-0.027,0.993-0.08,1.327-0.107c1.487-0.987,3.094-1.774,4.714-2.527c0.327-0.04,0.973-0.107,1.3-0.14
	c1.487-0.967,3.127-1.674,4.687-2.527c3.412-0.498,7.063-2.269,9.968-3.947c1.82-0.553,3.714-0.98,5.354-2
	c2.931,0.124,2.953-1.26,10.688-3.941c2.043-0.654,9.054-2.1,10.055-2.28c0.3-0.3,0.893-0.907,1.194-1.207
	c0.333-0.04,1-0.113,1.334-0.153C904.476,62.4,947.636,58.488,950.835,58.664 M766.02,765.373
	c-1.174,4.181-0.487,8.555-0.767,12.835c1.116,10.775-2.785,22.246-3.033,33.126c-0.528,23.189,3.628,46.554-1.145,69.665
	c-5.467,26.476-5.644,16.004-23.503,52.047c-18.827,37.995-33.766,30.523-51.908,34.621c-3.572,0.807-29.063,9.062-22.267,14.199
	c37,4.898,41.819,31.123,40.54,38.906c0.702-0.013,1.41-0.013,2.131,0.006c1.375,0.037,6.462-6.069,7.607-7.014
	c17.675-14.593,34.551-26.141,35.765-27.06c20.912-15.823,75.093-70.307,169.782-138.533c26.422-19.038,23.534,5.547-147.342-80.111
	C769.987,767.04,768.227,765.613,766.02,765.373z"/>
</svg>
